<?xml version="1.0" encoding="UTF-8"?>
<svg version="1.1" xmlns="http://www.w3.org/2000/svg" width="2000" height="2000">
<path d="M0 0 C660 0 1320 0 2000 0 C2000 660 2000 1320 2000 2000 C1340 2000 680 2000 0 2000 C0 1340 0 680 0 0 Z " fill="#FEFEFA" transform="translate(0,0)"/>
<path d="M0 0 C76.56 0 153.12 0 232 0 C232 76.89 232 153.78 232 233 C155.44 233 78.88 233 0 233 C0 156.11 0 79.22 0 0 Z " fill="#FFFEFA" transform="translate(1071,877)"/>
<path d="M0 0 C2.72367205 1.49762566 5.39650403 3.02870978 8.03955078 4.66552734 C9.09867676 5.3191626 10.15780273 5.97279785 11.24902344 6.64624023 C12.38502089 7.35304145 13.52092365 8.05999488 14.65673828 8.76708984 C15.8354617 9.49706889 17.01433699 10.22680276 18.19335938 10.95629883 C26.39728033 16.03854367 34.56550167 21.1767551 42.71533203 26.34521484 C48.20187152 29.82196999 53.70994376 33.26404293 59.21923828 36.70458984 C60.22873535 37.33502197 61.23823242 37.9654541 62.27832031 38.61499023 C64.335866 39.89969134 66.3934836 41.18427729 68.45117188 42.46875 C73.47920315 45.60798208 78.50539169 48.75016136 83.53173828 51.89208984 C85.53172913 53.14210448 87.53172914 54.39210447 89.53173828 55.64208984 C125.53173828 78.14208984 161.53173828 100.64208984 197.53173828 123.14208984 C199.01927612 124.07166504 199.01927612 124.07166504 200.53686523 125.02001953 C202.52010522 126.25972641 204.50301999 127.49995373 206.4855957 128.74072266 C211.73935977 132.02773294 216.9998477 135.30331566 222.27001953 138.56396484 C223.9203418 139.58780273 223.9203418 139.58780273 225.60400391 140.63232422 C227.71913421 141.94424049 229.83623779 143.2529822 231.95556641 144.55810547 C232.90496094 145.14785156 233.85435547 145.73759766 234.83251953 146.34521484 C235.66952393 146.86245117 236.50652832 147.3796875 237.36889648 147.91259766 C239.53173828 149.39208984 239.53173828 149.39208984 242.53173828 152.39208984 C81.49173828 152.39208984 -79.54826172 152.39208984 -245.46826172 152.39208984 C-242.56037202 149.48420015 -240.83113019 147.81492023 -237.47607422 145.86865234 C-236.70038086 145.41256592 -235.9246875 144.95647949 -235.12548828 144.48657227 C-234.28985352 144.00164307 -233.45421875 143.51671387 -232.59326172 143.01708984 C-225.21618631 138.66483098 -217.92991215 134.20085609 -210.71826172 129.57958984 C-203.03604363 124.66190933 -195.33176163 119.78329818 -187.59326172 114.95458984 C-186.59584961 114.33221436 -185.5984375 113.70983887 -184.57080078 113.06860352 C-182.54750835 111.80657079 -180.52407056 110.54477106 -178.50048828 109.28320312 C-173.48735631 106.1566556 -168.47798929 103.02408823 -163.46826172 99.89208984 C-161.46828001 98.64206058 -159.46828 97.39206059 -157.46826172 96.14208984 C-156.47826172 95.52333984 -155.48826172 94.90458984 -154.46826172 94.26708984 C-101.96826172 61.45458984 -101.96826172 61.45458984 -49.46826172 28.64208984 C-48.47673096 28.02237305 -47.4852002 27.40265625 -46.46362305 26.76416016 C-44.47912192 25.52386717 -42.49458462 24.28363206 -40.51000977 23.04345703 C-35.27256709 19.77043239 -30.03589945 16.49617603 -24.80029297 13.22021484 C-23.16350586 12.19637695 -23.16350586 12.19637695 -21.49365234 11.15185547 C-19.4022748 9.84363207 -17.31111742 8.53505662 -15.22021484 7.22607422 C-14.27726563 6.63632812 -13.33431641 6.04658203 -12.36279297 5.43896484 C-11.53626221 4.92172852 -10.70973145 4.40449219 -9.8581543 3.87158203 C-8.67515747 3.1392334 -8.67515747 3.1392334 -7.46826172 2.39208984 C-6.64543701 1.79299805 -5.8226123 1.19390625 -4.97485352 0.57666016 C-2.46826172 -0.60791016 -2.46826172 -0.60791016 0 0 Z " fill="#FF5731" transform="translate(1012.46826171875,605.60791015625)"/>
<path d="M0 0 C76.56 0 153.12 0 232 0 C232 76.89 232 153.78 232 233 C155.44 233 78.88 233 0 233 C0 156.11 0 79.22 0 0 Z M22 23 C22 84.71 22 146.42 22 210 C84.04 210 146.08 210 210 210 C210 148.29 210 86.58 210 23 C147.96 23 85.92 23 22 23 Z " fill="#FF5833" transform="translate(1071,877)"/>
<path d="M0 0 C2.39671308 1.26248734 4.68281469 2.57586943 6.95703125 4.04736328 C7.80958496 4.59513428 8.66213867 5.14290527 9.54052734 5.70727539 C10.45527832 6.30032471 11.3700293 6.89337402 12.3125 7.50439453 C14.30021792 8.78131354 16.28851934 10.05732459 18.27734375 11.33251953 C19.81817627 12.32155273 19.81817627 12.32155273 21.39013672 13.33056641 C26.363197 16.50695347 31.3677338 19.63230383 36.375 22.75439453 C37.37120361 23.37596436 38.36740723 23.99753418 39.39379883 24.63793945 C41.41828842 25.90082371 43.44294676 27.16343752 45.46777344 28.42578125 C50.48090541 31.55232878 55.49027243 34.68489615 60.5 37.81689453 C62.49998171 39.0669238 64.49998172 40.31692379 66.5 41.56689453 C102.5 64.06689453 102.5 64.06689453 105.50073242 65.94238281 C107.49825443 67.19081374 109.49581295 68.43918626 111.4934082 69.6875 C116.53162434 72.83602571 121.56917728 75.98560346 126.60546875 79.13720703 C127.61287109 79.76739746 128.62027344 80.39758789 129.65820312 81.046875 C131.65842765 82.29814376 133.65843209 83.54976441 135.65820312 84.80175781 C140.65233392 87.92515803 145.6555501 91.03246851 150.67578125 94.11376953 C152.14591675 95.01748291 152.14591675 95.01748291 153.64575195 95.93945312 C155.51344229 97.08617122 157.38300252 98.22985069 159.25463867 99.37011719 C160.07810791 99.87591309 160.90157715 100.38170898 161.75 100.90283203 C162.47703125 101.34675293 163.2040625 101.79067383 163.953125 102.24804688 C164.46359375 102.6007666 164.9740625 102.95348633 165.5 103.31689453 C165.5 103.64689453 165.5 103.97689453 165.5 104.31689453 C55.28 104.31689453 -54.94 104.31689453 -168.5 104.31689453 C-165.76974836 101.58664289 -163.45656792 99.93007856 -160.1875 97.94580078 C-159.12192871 97.29538818 -158.05635742 96.64497559 -156.95849609 95.97485352 C-156.39475281 95.63332245 -155.83100952 95.29179138 -155.25018311 94.93991089 C-152.278686 93.13934427 -149.31575288 91.32476752 -146.3515625 89.51220703 C-145.75928864 89.15055954 -145.16701477 88.78891205 -144.55679321 88.41630554 C-139.63376638 85.40754239 -134.74563413 82.34704704 -129.875 79.25439453 C-122.87036281 74.81154399 -115.84807943 70.39810429 -108.8125 66.00439453 C-107.80300293 65.3739624 -106.79350586 64.74353027 -105.75341797 64.09399414 C-103.69587228 62.80929304 -101.63825468 61.52470709 -99.58056641 60.24023438 C-94.55253513 57.1010023 -89.52634659 53.95882302 -84.5 50.81689453 C-82.50000915 49.5668799 -80.50000914 48.31687991 -78.5 47.06689453 C-77.51 46.44814453 -76.52 45.82939453 -75.5 45.19189453 C-66.5 39.56689453 -66.5 39.56689453 -63.49951172 37.69165039 C-61.50106616 36.44258125 -59.50269366 35.19339519 -57.50439453 33.9440918 C-52.48120665 30.80388317 -47.4567348 27.66576536 -42.4296875 24.53173828 C-41.42784424 23.9064624 -40.42600098 23.28118652 -39.39379883 22.63696289 C-37.39760032 21.39210348 -35.40006172 20.14939014 -33.40112305 18.90893555 C-28.31008837 15.74042473 -23.26762845 12.51718542 -18.27734375 9.19189453 C-17.27525879 8.53133057 -16.27317383 7.8707666 -15.24072266 7.19018555 C-13.33044684 5.92733938 -11.42979373 4.64977883 -9.54052734 3.35571289 C-8.68797363 2.79505127 -7.83541992 2.23438965 -6.95703125 1.65673828 C-5.8429187 0.90444946 -5.8429187 0.90444946 -4.70629883 0.13696289 C-2.5 -0.68310547 -2.5 -0.68310547 0 0 Z " fill="#FFFDF9" transform="translate(1012.5,631.68310546875)"/>
<path d="M0 0 C18.7171875 -0.061875 18.7171875 -0.061875 37.8125 -0.125 C41.73229736 -0.14320801 45.65209473 -0.16141602 49.69067383 -0.18017578 C54.52868652 -0.18920898 54.52868652 -0.18920898 56.80351257 -0.19088745 C58.37054078 -0.19393073 59.93756471 -0.20090602 61.50456238 -0.21115112 C80.58466002 -0.32951091 98.43326276 1.80795906 112.703125 15.65234375 C122.43427405 26.09612745 124.34341334 38.26823871 124.25 52 C124.26160156 53.70542969 124.26160156 53.70542969 124.2734375 55.4453125 C124.25899763 61.66889579 123.84914665 67.05346365 122 73 C121.73960937 73.86367187 121.47921875 74.72734375 121.2109375 75.6171875 C116.60489743 88.0578004 107.44472204 97.11012841 95.5625 102.75 C86.04083734 106.80972714 77.00342014 109.16820826 66.63671875 109.09765625 C65.93405884 109.09664917 65.23139893 109.09564209 64.50744629 109.09460449 C61.90078075 109.08940101 59.29413861 109.07543987 56.6875 109.0625 C50.850625 109.041875 45.01375 109.02125 39 109 C39 123.19 39 137.38 39 152 C26.13 152 13.26 152 0 152 C0 101.84 0 51.68 0 0 Z " fill="#011F3F" transform="translate(265,1186)"/>
<path d="M0 0 C12.54 0 25.08 0 38 0 C38.02578125 4.65996094 38.0515625 9.31992188 38.078125 14.12109375 C38.10331632 17.08794425 38.12966653 20.05469511 38.16015625 23.02148438 C38.20835347 27.72192656 38.2524494 32.42213783 38.27099609 37.12280273 C38.28623312 40.91619238 38.32080119 44.70897451 38.36830902 48.50209236 C38.38305077 49.94317379 38.39103685 51.384342 38.39188385 52.82549858 C38.40124979 60.77681467 38.45843887 68.1486361 43 75 C48.47916579 80.21825313 52.42132163 80.28380731 59.7890625 80.21875 C64.56801586 79.89317654 67.44875208 78.60664964 70.75 75.1875 C73.54270248 70.30027065 74.25576168 65.74105136 74.31884766 60.16845703 C74.32889328 59.51409164 74.3389389 58.85972626 74.34928894 58.18553162 C74.37994662 56.04296675 74.39710683 53.9005258 74.4140625 51.7578125 C74.43278823 50.26422065 74.45236269 48.77063922 74.4727478 47.27706909 C74.52392678 43.36122806 74.56362827 39.44535279 74.60089111 35.52935791 C74.64808581 30.8226724 74.70962226 26.11615491 74.76873779 21.40960693 C74.85677645 14.27313965 74.9266645 7.13670173 75 0 C87.54 0 100.08 0 113 0 C113.06816281 13.21449585 113.12303746 26.42887221 113.15543652 39.6435051 C113.17099755 45.78160967 113.19205815 51.91958625 113.22631836 58.05761719 C113.25925656 63.9969328 113.27692461 69.93612642 113.28463173 75.87552643 C113.29011409 78.12537808 113.3008167 80.37522414 113.31719017 82.62502289 C113.48257309 106.32282073 112.8439364 133.79552624 95.8203125 152.37890625 C78.79181291 167.54377177 58.17737621 168.02726024 36.48242188 167.23388672 C22.39719126 166.28789324 10.18818183 160.77494797 -2 154 C0.03849004 146.80613443 2.48156368 139.84290835 5.1875 132.875 C5.55552734 131.91851563 5.92355469 130.96203125 6.30273438 129.9765625 C7.19855445 127.64975711 8.09767773 125.32428979 9 123 C11.90995033 123.62129658 13.63269725 124.35813052 16.3125 125.875 C28.25732072 131.93589052 45.14364901 133.19747344 58.01171875 129.68359375 C64.88794523 127.31946873 69.59353482 124.66673014 73 118 C74.1610454 114.31368085 74.07407554 110.85192803 74 107 C73.030625 107.763125 72.06125 108.52625 71.0625 109.3125 C60.51174039 116.83657705 45.58277991 117.55325279 33.15625 115.5390625 C22.7358268 112.73610056 14.19297271 106.82739985 8 98 C6.04984859 94.42720352 4.45748359 90.79775195 3 87 C2.5875 85.9275 2.175 84.855 1.75 83.75 C0.18183708 78.00006931 -0.12367361 72.34906086 -0.11352539 66.41235352 C-0.11367142 65.68956711 -0.11381744 64.9667807 -0.1139679 64.22209167 C-0.11327699 61.85766489 -0.10552352 59.4933191 -0.09765625 57.12890625 C-0.09578914 55.47981306 -0.09436662 53.83071931 -0.09336853 52.18162537 C-0.0895664 47.85965419 -0.07975597 43.53771708 -0.06866455 39.21575928 C-0.05659335 34.02024286 -0.05203721 28.82471499 -0.04621124 23.62918854 C-0.03654283 15.75276873 -0.01737021 7.87642354 0 0 Z " fill="#022140" transform="translate(1619,1224)"/>
<path d="M0 0 C12.87 0 25.74 0 39 0 C39.029729 4.11758789 39.029729 4.11758789 39.06005859 8.31835938 C39.12705925 17.40279904 39.20469741 26.48712558 39.28752708 35.57143402 C39.33740611 41.07754512 39.38373687 46.58363782 39.421875 52.08984375 C39.45883384 57.40673903 39.50522249 62.72347711 39.55806351 68.04023743 C39.5765512 70.06550836 39.59167977 72.09081292 39.60334396 74.11613464 C39.62030288 76.95974721 39.64936087 79.80300415 39.68115234 82.64648438 C39.68331253 83.47799011 39.68547272 84.30949585 39.68769836 85.16619873 C39.81537023 94.14503811 41.96472847 102.45968088 47 110 C54.4174562 117.17117347 61.63298364 117.43507701 71.515625 117.28125 C78.00055125 117.0126118 82.485464 115.24269427 87.3125 110.9375 C89.8490345 106.52205106 91.40946859 101.82386521 93 97 C93.495 95.515 93.495 95.515 94 94 C94.12066387 91.00330247 94.18544984 88.02817644 94.20532227 85.03051758 C94.21522186 84.11324387 94.22512146 83.19597015 94.23532104 82.25090027 C94.2669378 79.21547029 94.29169423 76.18002465 94.31640625 73.14453125 C94.33697562 71.04131155 94.35797209 68.93809598 94.37937927 66.83488464 C94.43460167 61.29634956 94.48401025 55.75777716 94.53222656 50.21917725 C94.58244033 44.56861038 94.63812705 38.91809777 94.69335938 33.26757812 C94.80094304 22.17843003 94.90188192 11.08923589 95 0 C107.87 0 120.74 0 134 0 C134.09096374 11.91065221 134.16409452 23.82106752 134.20724869 35.73199081 C134.22797763 41.2648196 134.25602124 46.79739506 134.30175781 52.33007812 C134.3457466 57.68585897 134.36924702 63.04139871 134.37950897 68.3973465 C134.38680646 70.42393023 134.40105114 72.45050325 134.42292023 74.47698212 C134.65316499 96.73097728 132.42321108 120.6556521 117 138 C110.77665279 144.04760485 104.04485131 147.86148317 96 151 C95.01 151.391875 94.02 151.78375 93 152.1875 C72.41746722 157.76193596 47.233489 157.0318094 28.33203125 146.515625 C26.14240921 145.09255406 24.06663018 143.59499258 22 142 C20.453125 140.88625 20.453125 140.88625 18.875 139.75 C4.71605569 126.20666197 0.09206137 105.79254016 -0.42314529 86.79893875 C-0.47690626 81.95335658 -0.44233555 77.11106122 -0.390625 72.265625 C-0.38313941 70.16429185 -0.37745749 68.06295159 -0.37347412 65.96160889 C-0.3583999 60.50363963 -0.31928138 55.0461148 -0.2746582 49.58831787 C-0.23330618 43.98992927 -0.21537894 38.39146694 -0.1953125 32.79296875 C-0.15276427 21.86175521 -0.0825699 10.93098454 0 0 Z " fill="#022040" transform="translate(620,1185)"/>
<path d="M0 0 C12.54 0 25.08 0 38 0 C38.33 15.84 38.66 31.68 39 48 C42.3 45.69 45.6 43.38 49 41 C52.11196241 39.78754711 54.8124945 38.76878611 58 38 C58.7528125 37.81695313 59.505625 37.63390625 60.28125 37.4453125 C71.96637426 35.53136973 83.58365924 36.44450838 93.75 42.75 C103.37310596 49.67931397 108.44109776 59.48493992 111 71 C112.27079874 79.59610721 112.12709422 88.18164837 112.09765625 96.84765625 C112.09578809 98.47147071 112.09436607 100.09528573 112.09336853 101.71910095 C112.08957469 105.96541944 112.07977163 110.211703 112.06866455 114.45800781 C112.05657061 119.56763741 112.05203326 124.67727878 112.04621124 129.78691864 C112.03655782 137.52463662 112.01737946 145.26227816 112 153 C99.46 153 86.92 153 74 153 C73.96261719 148.400625 73.92523438 143.80125 73.88671875 139.0625 C73.85641798 136.13668235 73.82525651 133.21092398 73.79101562 130.28515625 C73.73683089 125.6483063 73.68571599 121.01157362 73.65356445 116.37451172 C73.62742247 112.63307581 73.58694481 108.89203703 73.53681374 105.15084839 C73.52021821 103.72847459 73.50865861 102.30603222 73.50238609 100.88357544 C73.53637859 88.07928203 73.53637859 88.07928203 67.5625 77.125 C62.85944018 73.22490161 59.48669498 72.60840129 53.46875 72.75 C48.74273965 73.22858333 45.96571507 74.98063409 42.75 78.375 C39.55285754 83.17071369 38.74611244 86.96904946 38.68115234 92.71801758 C38.66608391 93.69934662 38.66608391 93.69934662 38.65071106 94.70050049 C38.6199855 96.84850235 38.60287404 98.99638019 38.5859375 101.14453125 C38.56721725 102.6395524 38.54764319 104.13456308 38.5272522 105.62956238 C38.47601537 109.55363786 38.43634465 113.47774756 38.39910889 117.40197754 C38.35196002 122.11614789 38.29039854 126.83014954 38.23126221 131.54418182 C38.14315292 138.69605281 38.07331537 145.84789314 38 153 C25.46 153 12.92 153 0 153 C0 102.51 0 52.02 0 0 Z " fill="#012040" transform="translate(411,1185)"/>
<path d="M0 0 C14.85 0 29.7 0 45 0 C45 74.58 45 149.16 45 226 C30.15 226 15.3 226 0 226 C0 151.42 0 76.84 0 0 Z " fill="#FF5731" transform="translate(906,810)"/>
<path d="M0 0 C14.85 0 29.7 0 45 0 C45 74.58 45 149.16 45 226 C30.15 226 15.3 226 0 226 C0 151.42 0 76.84 0 0 Z " fill="#FF5732" transform="translate(824,810)"/>
<path d="M0 0 C11.82623206 9.7491565 18.32321478 22.82753565 20 38 C20.09024049 40.69925233 20.14039859 43.36518024 20.125 46.0625 C20.12886719 46.74376953 20.13273437 47.42503906 20.13671875 48.12695312 C20.12874796 52.27574811 19.69117656 55.85294066 19 60 C-5.42 60 -29.84 60 -55 60 C-51.14786025 68.96568154 -51.14786025 68.96568154 -44.36328125 74.22265625 C-36.6319753 76.76568085 -29.26694912 75.25351735 -21.9609375 72.16796875 C-19.69472488 71.00900609 -19.69472488 71.00900609 -18 68 C-15.16272675 67.73332461 -12.54616955 67.65208766 -9.7109375 67.70703125 C-8.89251373 67.71127609 -8.07408997 67.71552094 -7.23086548 67.71989441 C-4.61191164 67.73671321 -1.99372198 67.77437026 0.625 67.8125 C2.3984264 67.82754274 4.17186484 67.84123186 5.9453125 67.85351562 C10.2971703 67.88662708 14.64845551 67.93843048 19 68 C17.55684595 79.13337149 12.39219265 88.48883825 4 96 C-11.29626656 107.20890352 -29.16404393 109.90040772 -47.62890625 107.53515625 C-62.76332081 104.45727892 -75.33449484 96.77958256 -83.9597168 83.98583984 C-91.1843178 72.75044558 -92.20957288 62.48105299 -92.3125 49.375 C-92.34150391 48.16714844 -92.37050781 46.95929688 -92.40039062 45.71484375 C-92.50832463 30.28858319 -86.91213715 16.93366397 -76.3125 5.6875 C-55.77571142 -13.58120374 -23.28294711 -16.1327828 0 0 Z " fill="#022140" transform="translate(1203,1232)"/>
<path d="M0 0 C14.52 0 29.04 0 44 0 C44 74.58 44 149.16 44 226 C29.48 226 14.96 226 0 226 C0 151.42 0 76.84 0 0 Z " fill="#FF5630" transform="translate(989,810)"/>
<path d="M0 0 C10.59331489 9.38468165 14.16325744 24.14533534 15.2242012 37.72984123 C15.45799403 42.7933245 15.40523416 47.85480415 15.3515625 52.921875 C15.345947 54.51326084 15.34168619 56.10465197 15.33869934 57.69604492 C15.32740397 61.82567407 15.29807473 65.95497184 15.2645874 70.08447266 C15.22806554 75.07073115 15.21465222 80.05710226 15.19722748 85.04345703 C15.16842328 92.56565809 15.11083152 100.08713631 15.05859375 107.609375 C2.51859375 107.609375 -10.02140625 107.609375 -22.94140625 107.609375 C-22.9671875 103.03320312 -22.99296875 98.45703125 -23.01953125 93.7421875 C-23.04472805 90.82546654 -23.07108245 87.90884639 -23.1015625 84.9921875 C-23.14972521 80.37304438 -23.19383387 75.7541349 -23.21240234 71.13476562 C-23.22766012 67.40620596 -23.26226385 63.67826182 -23.30971527 59.94997787 C-23.32443594 58.53484351 -23.33244186 57.11962122 -23.3332901 55.70441055 C-23.34328165 47.38536129 -23.66476507 39.94386753 -27.94140625 32.609375 C-31.91312534 28.73222065 -34.65778154 27.4402562 -40.12890625 27.296875 C-45.35043167 27.37195576 -49.07017696 27.97001622 -52.94140625 31.609375 C-57.25297187 37.18970863 -59.05089487 41.83874888 -59.14672852 48.91674805 C-59.16667374 50.21787033 -59.18661896 51.51899261 -59.20716858 52.85954285 C-59.22415171 54.2800586 -59.24103056 55.7005756 -59.2578125 57.12109375 C-59.27838762 58.57412806 -59.29938424 60.02715646 -59.32078552 61.48017883 C-59.37594859 65.3023703 -59.42538323 69.12461526 -59.47363281 72.94689941 C-59.53272796 77.53416031 -59.59892418 82.12132355 -59.6639328 86.70850372 C-59.7618698 93.67540111 -59.8507753 100.64236148 -59.94140625 107.609375 C-72.48140625 107.609375 -85.02140625 107.609375 -97.94140625 107.609375 C-97.94140625 69.989375 -97.94140625 32.369375 -97.94140625 -6.390625 C-86.39140625 -6.390625 -74.84140625 -6.390625 -62.94140625 -6.390625 C-60.94140625 0.609375 -60.94140625 0.609375 -60.94140625 3.609375 C-60.03261719 2.92101563 -60.03261719 2.92101563 -59.10546875 2.21875 C-41.5287591 -10.65280969 -18.31768083 -13.12091424 0 0 Z " fill="#012040" transform="translate(880.94140625,1230.390625)"/>
<path d="M0 0 C137.61 0 275.22 0 417 0 C417 7.26 417 14.52 417 22 C279.39 22 141.78 22 0 22 C0 14.74 0 7.48 0 0 Z " fill="#FF5630" transform="translate(802,773)"/>
<path d="M0 0 C7.67252475 6.04146081 14.32355965 13.33557881 15.75244141 23.32666016 C15.82640137 24.20112793 15.90036133 25.0755957 15.9765625 25.9765625 C16.05471191 26.8629541 16.13286133 27.7493457 16.21337891 28.66259766 C16.26671387 29.33081543 16.32004883 29.9990332 16.375 30.6875 C11.32137979 30.81121396 6.26864298 30.90189046 1.21386719 30.9621582 C-0.50503901 30.98728367 -2.22383856 31.02139047 -3.94238281 31.06469727 C-6.41498114 31.12544029 -8.88616606 31.15372762 -11.359375 31.17578125 C-12.12618591 31.20158768 -12.89299683 31.2273941 -13.68304443 31.25398254 C-15.86621094 31.25512695 -15.86621094 31.25512695 -19.625 30.6875 C-22.00488281 28.23901367 -22.00488281 28.23901367 -23.625 25.6875 C-27.91187519 23.11537489 -32.7590537 23.08035661 -37.625 23.6875 C-40.60484167 25.01920309 -40.60484167 25.01920309 -42.625 26.6875 C-42.43671228 29.13230079 -42.43671228 29.13230079 -41.625 31.6875 C-38.2874585 33.89485269 -34.56599636 34.45215814 -30.69140625 35.23828125 C-29.30527731 35.52770167 -27.9192117 35.81742559 -26.53320312 36.10742188 C-24.37558589 36.55235905 -22.21740896 36.99396883 -20.05786133 37.42944336 C7.93870917 43.10648073 7.93870917 43.10648073 14.80078125 52.67578125 C20.24808475 61.069232 20.39083914 69.9126827 19.375 79.6875 C16.82461299 89.29735826 12.21258778 95.97498501 3.84375 101.2734375 C-12.25496526 110.49453706 -32.18138613 112.25892844 -49.95874023 107.52416992 C-62.35422456 103.87644827 -71.58754506 97.40474001 -78 86.125 C-80.99534676 80.24012035 -82.73800202 75.35461922 -82.625 68.6875 C-77.32324834 68.51392848 -72.02316344 68.38719072 -66.71923828 68.30297852 C-64.91686179 68.26786308 -63.11468348 68.22015697 -61.31298828 68.15942383 C-58.71597391 68.0740995 -56.12160185 68.03472672 -53.5234375 68.00390625 C-52.7232016 67.96777725 -51.9229657 67.93164825 -51.09848022 67.89442444 C-47.64927396 67.89202595 -45.49755821 67.93683702 -42.81817627 70.24191284 C-41.20947266 72.14038086 -41.20947266 72.14038086 -39.84439087 74.03990173 C-38.02618979 76.4965914 -36.60733041 77.07747787 -33.625 77.6875 C-28.95436765 78.10507309 -24.94313329 78.16202799 -20.5 76.5625 C-18.29066941 74.74988155 -18.29066941 74.74988155 -18.3125 71.5 C-18.415625 70.571875 -18.51875 69.64375 -18.625 68.6875 C-22.79969764 66.42374441 -26.56241571 65.08216869 -31.2109375 64.14453125 C-32.46455078 63.87970947 -33.71816406 63.6148877 -35.00976562 63.34204102 C-35.66243408 63.2053299 -36.31510254 63.06861877 -36.98754883 62.92776489 C-66.21521319 56.71515766 -66.21521319 56.71515766 -74.4375 46.6875 C-75.65234375 44.65625 -75.65234375 44.65625 -76.625 42.6875 C-77.24375 41.5325 -77.8625 40.3775 -78.5 39.1875 C-81.09501982 31.27737935 -81.09435655 20.75913626 -77.625 13.1875 C-70.92105688 2.05783399 -60.93075118 -3.80432697 -48.5625 -7.1875 C-32.18954658 -10.43470462 -14.2554682 -9.3746367 0 0 Z " fill="#022040" transform="translate(1412.625,1230.3125)"/>
<path d="M0 0 C13.53 0 27.06 0 41 0 C42.216875 4.74375 43.43375 9.4875 44.6875 14.375 C46.87857629 22.89815036 49.06946002 31.41629257 51.5 39.875 C55.48021086 53.78294385 58.64141344 67.93224161 62 82 C62.25168945 80.98276855 62.50337891 79.96553711 62.76269531 78.91748047 C63.71444442 75.07375489 64.6695127 71.23085998 65.62548828 67.38818359 C66.03554669 65.73801108 66.44475385 64.08762675 66.85302734 62.43701172 C69.0857025 53.41305439 71.41141383 44.44247885 74.00878906 35.51513672 C75.91389042 28.75906547 77.56655792 21.93916942 79.25 15.125 C80.4875 10.13375 81.725 5.1425 83 0 C96.53 0 110.06 0 124 0 C122.75311648 5.61097586 121.57919459 10.62520533 119.7578125 15.984375 C119.54816864 16.60669006 119.33852478 17.22900513 119.12252808 17.87017822 C118.46102982 19.83162138 117.79342478 21.79090773 117.125 23.75 C116.464746 25.69513854 115.80591677 27.64074226 115.14889526 29.5869751 C114.54873486 31.36325789 113.94467548 33.13822198 113.34033203 34.91308594 C112.20512925 38.3139271 111.15578512 41.73835038 110.109375 45.16748047 C108.09067326 51.75975257 105.93719397 58.30057588 103.7421875 64.8359375 C103.35306183 65.99952789 102.96393616 67.16311829 102.5630188 68.36196899 C101.33515475 72.0334752 100.10532837 75.70431892 98.875 79.375 C97.2456483 84.23639644 95.61831363 89.0984613 93.9921875 93.9609375 C93.62133026 95.06521088 93.25047302 96.16948425 92.86837769 97.30722046 C92.52106598 98.34585236 92.17375427 99.38448425 91.81591797 100.45458984 C91.36102493 101.81141373 91.36102493 101.81141373 90.89694214 103.19564819 C89.85880194 106.44146554 88.93619323 109.7233237 88 113 C71.17 113 54.34 113 37 113 C34.40003115 106.50007787 31.87313027 100.03700316 29.5625 93.4375 C29.28857422 92.67115234 29.01464844 91.90480469 28.73242188 91.11523438 C26.90468648 85.9080706 25.30351502 80.65375742 23.77734375 75.3515625 C20.52475242 64.10292808 16.73748169 53.03218172 13 41.9375 C0 3.28133625 0 3.28133625 0 0 Z " fill="#01203F" transform="translate(975,1225)"/>
<path d="M0 0 C12.54 0 25.08 0 38 0 C38 9.24 38 18.48 38 28 C49.22 28 60.44 28 72 28 C72 39.55 72 51.1 72 63 C60.78 63 49.56 63 38 63 C38.07418176 67.8755324 38.15716848 72.74929047 38.26245117 77.62402344 C38.29560018 79.28050384 38.32366309 80.93709446 38.34643555 82.59375 C38.38016732 84.98224634 38.43248959 87.36974171 38.48828125 89.7578125 C38.49467117 90.49242706 38.5010611 91.22704163 38.50764465 91.98391724 C38.64087344 96.69725424 39.46998662 100.01152588 42 104 C47.22227368 107.48151579 53.90397942 106.44416623 60 106 C62.72474463 105.27591272 64.55670083 104.4302239 67 103 C69.87837056 109.57738294 72.53098433 116.21477925 74.875 123 C75.30554687 124.2375 75.73609375 125.475 76.1796875 126.75 C77.37755926 131.49585382 77.37755926 131.49585382 76 134 C65.34967845 141.39555435 53.50452143 143.24227942 40.875 143.375 C39.9567041 143.38901855 39.0384082 143.40303711 38.09228516 143.41748047 C27.12909001 143.34086972 18.25885292 140.31580051 10 133 C-2.02868868 119.78393003 -0.50293153 102.28672825 -0.25 85.6875 C-0.22990171 83.38608327 -0.21165684 81.08464957 -0.1953125 78.78320312 C-0.15158745 73.18837744 -0.08274296 67.59437911 0 62 C-5.28 62 -10.56 62 -16 62 C-16 51.11 -16 40.22 -16 29 C-10.72 29 -5.44 29 0 29 C0 19.43 0 9.86 0 0 Z " fill="#022141" transform="translate(1525,1196)"/>
<path d="M0 0 C28.38 0 56.76 0 86 0 C86.12032643 25.46463739 86.12032643 25.46463739 86.14648438 36.3203125 C86.16441684 43.72727913 86.18562994 51.13413449 86.22631836 58.54101562 C86.25891736 64.5126861 86.27685429 70.48423725 86.28463173 76.45598984 C86.29017422 78.73415887 86.3009973 81.01232138 86.31719017 83.29043961 C86.3389712 86.4816931 86.34196658 89.67245365 86.34057617 92.86376953 C86.351362 93.80532394 86.36214783 94.74687836 86.3732605 95.71696472 C86.34084699 102.59349722 84.86963281 107.53342109 79.9375 112.5625 C71.80456962 120.3335839 62.54198275 122.35896996 51.6171875 122.2109375 C46.55814297 121.80319361 43.86626331 119.75327245 40.125 116.5 C37.35980582 112.87011969 37.22888577 109.2654505 37.46484375 104.8125 C38.59897184 98.85211881 41.61336823 94.79962848 46.4140625 91.1796875 C54.59891652 86.06106278 61.37883667 84.37506039 71 85 C72.98 85.495 72.98 85.495 75 86 C75 70.49 75 54.98 75 39 C53.88 39 32.76 39 11 39 C11.11862932 59.79235382 11.11862932 59.79235382 11.27026367 80.58447266 C11.27902689 83.1943322 11.28667121 85.80419584 11.29296875 88.4140625 C11.30080887 89.08674164 11.30864899 89.75942078 11.31672668 90.45248413 C11.33882418 92.44949888 11.34001862 94.44671074 11.34057617 96.44384766 C11.34723801 97.56747711 11.35389984 98.69110657 11.36076355 99.8487854 C10.55264341 106.9075916 6.35770989 111.71183294 1 116 C-7.69283915 121.35049751 -15.86870418 122.8165522 -26 122 C-30.18824511 120.6039183 -33.36102333 118.48740259 -36.07421875 114.92578125 C-38.09533859 110.72151087 -37.85525377 106.49476432 -37 102 C-33.46720719 93.20238367 -26.25657807 89.4605259 -18.0625 85.625 C-12.47201822 84.48408535 -6.44469722 84.18510093 -1 86 C-0.67 57.62 -0.34 29.24 0 0 Z " fill="#FF5833" transform="translate(1153,930)"/>
<path d="M0 0 C93.39 0 186.78 0 283 0 C283 7.59 283 15.18 283 23 C189.61 23 96.22 23 0 23 C0 15.41 0 7.82 0 0 Z " fill="#FF5B36" transform="translate(774,1087)"/>
<path d="M0 0 C0.80211914 0.00249756 1.60423828 0.00499512 2.43066406 0.00756836 C3.94225098 0.02122437 3.94225098 0.02122437 5.484375 0.03515625 C8.701875 0.05578125 11.919375 0.07640625 15.234375 0.09765625 C15.234375 12.30765625 15.234375 24.51765625 15.234375 37.09765625 C10.614375 37.42765625 5.994375 37.75765625 1.234375 38.09765625 C-2.66694677 38.82521798 -2.66694677 38.82521798 -5.828125 39.91015625 C-7.36146484 40.38388672 -7.36146484 40.38388672 -8.92578125 40.8671875 C-14.33692344 43.21176768 -17.3416464 46.16178438 -19.91871643 51.51399231 C-21.70948955 56.9771038 -21.36967913 62.74703045 -21.375 68.44140625 C-21.39000363 69.82004721 -21.40673532 71.19867035 -21.42510986 72.57727051 C-21.46855186 76.18079516 -21.48873037 79.78407746 -21.50384521 83.38781738 C-21.52350064 87.07509404 -21.56524763 90.76211853 -21.60546875 94.44921875 C-21.68258338 101.66552472 -21.7231725 108.8807308 -21.765625 116.09765625 C-34.305625 116.09765625 -46.845625 116.09765625 -59.765625 116.09765625 C-59.765625 78.80765625 -59.765625 41.51765625 -59.765625 3.09765625 C-48.875625 3.09765625 -37.985625 3.09765625 -26.765625 3.09765625 C-25.775625 6.06765625 -24.785625 9.03765625 -23.765625 12.09765625 C-23.3325 11.39640625 -22.899375 10.69515625 -22.453125 9.97265625 C-16.60502542 3.71654972 -8.56055057 -0.05487532 0 0 Z " fill="#012040" transform="translate(1304.765625,1221.90234375)"/>
<path d="M0 0 C83.82 0 167.64 0 254 0 C254 7.26 254 14.52 254 22 C170.18 22 86.36 22 0 22 C0 14.74 0 7.48 0 0 Z " fill="#FF5630" transform="translate(802,1051)"/>
<path d="M0 0 C12.54 0 25.08 0 38 0 C38 37.62 38 75.24 38 114 C25.46 114 12.92 114 0 114 C0 76.38 0 38.76 0 0 Z " fill="#032241" transform="translate(1452,1224)"/>
<path d="M0 0 C12.54 0 25.08 0 38 0 C38 37.62 38 75.24 38 114 C25.46 114 12.92 114 0 114 C0 76.38 0 38.76 0 0 Z " fill="#022140" transform="translate(921,1224)"/>
<path d="M0 0 C14.85 0 29.7 0 45 0 C45 17.49 45 34.98 45 53 C30.15 53 15.3 53 0 53 C0 35.51 0 18.02 0 0 Z " fill="#FF5832" transform="translate(1153,810)"/>
<path d="M0 0 C14.52 0 29.04 0 44 0 C44 17.49 44 34.98 44 53 C29.48 53 14.96 53 0 53 C0 35.51 0 18.02 0 0 Z " fill="#FF5630" transform="translate(1071,810)"/>
<path d="M0 0 C6.73757939 3.8811946 12.00466815 9.32650444 14.5 16.8125 C15.28370726 26.80797952 14.51835293 34.14670954 8.69921875 42.3515625 C4.13986918 47.45349896 -2.12578717 50.24947036 -8.82421875 51.3671875 C-17.23666195 51.70567634 -23.91273956 49.80529905 -30.30859375 44.23828125 C-35.59502247 38.58272534 -38.67504619 32.06806432 -39 24.3125 C-38.67504619 16.55693568 -35.59502247 10.04227466 -30.30859375 4.38671875 C-21.63872258 -3.159627 -10.48406034 -4.91440328 0 0 Z " fill="#FF5732" transform="translate(1022.5,657.1875)"/>
<path d="M0 0 C5.76999475 2.62115204 8.94310084 5.62132811 12.04296875 11.12109375 C14.10957807 17.3209217 14.35473226 25.56137037 12.1015625 31.67578125 C8.4150909 37.80064003 3.04844639 42.30729278 -3.95703125 44.12109375 C-11.66796702 44.97402237 -18.56621143 44.38107869 -24.8984375 39.6796875 C-30.12209248 34.97948856 -32.30984503 29.95220214 -33.234375 23.05078125 C-33.52749484 17.0711365 -32.116919 11.84822475 -28.41015625 7.16796875 C-20.52791469 -1.13279891 -11.08293278 -3.29413458 0 0 Z " fill="#032141" transform="translate(949.95703125,1172.87890625)"/>
<path d="M0 0 C5.26928525 2.32232936 9.13181727 5.41858905 12.0703125 10.40234375 C14.5696534 17.38292477 14.49738683 26.00487534 11.4453125 32.8203125 C8.49501727 37.64997729 3.44907554 42.17144491 -1.9921875 43.8203125 C-10.08220624 44.85308085 -16.90834933 44.78670381 -23.9296875 40.1953125 C-28.71738066 35.86896022 -31.56300073 31.42601595 -32.30078125 24.92578125 C-32.44318918 17.32789926 -32.22850619 11.90918227 -26.9296875 6.1953125 C-19.22850486 -1.4664779 -10.51613137 -2.88843075 0 0 Z " fill="#022040" transform="translate(1480.9296875,1172.8046875)"/>
<path d="M0 0 C5.115 -0.061875 10.23 -0.12375 15.5 -0.1875 C17.89668945 -0.22846802 17.89668945 -0.22846802 20.34179688 -0.27026367 C36.03436829 -0.36216601 36.03436829 -0.36216601 42.875 5.4375 C47.53455385 11.05637377 47.62744187 15.87549876 47 23 C45.33581269 28.97149563 42.19318614 32.74291433 37 36 C32.40209193 37.8400898 28.5692091 38.23610917 23.6328125 38.1953125 C21.76713623 38.18781982 21.76713623 38.18781982 19.86376953 38.18017578 C18.29997559 38.16196777 16.73618164 38.14375977 15.125 38.125 C10.13375 38.08375 5.1425 38.0425 0 38 C0 25.46 0 12.92 0 0 Z " fill="#FEFEFA" transform="translate(304,1222)"/>
<path d="M0 0 C21.12 0 42.24 0 64 0 C64 2.97 64 5.94 64 9 C42.88 9 21.76 9 0 9 C0 6.03 0 3.06 0 0 Z " fill="#FFFEFA" transform="translate(1164,945)"/>
<path d="M0 0 C2.9375 2.625 2.9375 2.625 5 5 C5.495 5.495 5.495 5.495 6 6 C6 7.98 6 9.96 6 12 C-6.21 12 -18.42 12 -31 12 C-29.91877158 5.5126295 -28.80825104 3.01618024 -23.5625 -0.75 C-15.98895173 -4.44441379 -7.33900028 -3.99881426 0 0 Z " fill="#F9FAF7" transform="translate(1180,1255)"/>
</svg>
